<svg width="120" height="120" viewBox="0 0 120 120" fill="none" xmlns="http://www.w3.org/2000/svg">
<g clip-path="url(#clip0_115_676)">
<path d="M99.863 90.3092H107.671V82.6803H117.74V77.7319H107.671V75.0515H120V70.103H99.863V90.3092ZM77.2603 90.3092H85.0685V82.6803H95.137V77.7319H85.0685V75.0515H97.3973V70.103H77.2603V90.3092ZM60.2055 83.2989L62.6712 76.0824L65.137 83.2989H60.2055ZM49.3151 90.3092H57.5342L58.3562 88.2474H66.9863L67.6027 90.3092H76.0274L67.8082 70.103H57.9452L49.3151 90.3092ZM39.863 70.103H24.6575V90.3092H32.4658V84.1236H37.1918C39.0411 84.1236 39.863 84.536 40.0685 86.1855C40.274 87.835 40.0685 89.2783 40.6849 90.3092H49.3151V90.103C48.2877 89.6907 48.2877 88.0412 48.2877 85.1546C48.0822 82.8865 47.8767 81.6494 45.8219 80.8247C47.8767 79.9999 49.1096 78.1443 49.1096 75.67C49.1096 73.8144 48.2877 72.1649 46.8493 71.3401C45.411 70.3092 43.1507 70.103 39.863 70.103ZM32.4658 78.7628V75.0515H36.9863C39.2466 75.0515 40.4795 75.2577 40.4795 76.701C40.4795 78.1443 39.4521 78.5566 37.1918 78.5566H32.4658V78.7628ZM7.19178 90.3092H15V75.2577H22.1918V70.103H0V75.2577H7.19178V90.3092Z" fill="white"/>
<path d="M42.1233 110.928H49.9315C53.0137 110.928 54.2466 111.959 54.2466 114.227C54.2466 116.495 52.6027 117.32 49.5205 117.32H42.1233V110.928ZM42.1233 102.474H49.9315C52.6027 102.474 53.8356 103.299 53.8356 105.361C53.8356 107.629 52.3973 108.247 49.3151 108.247H42.1233V102.474ZM39.2466 120H50.137C54.863 120 57.3288 118.144 57.3288 114.021C57.3288 111.34 55.8904 109.691 53.4247 109.278C55.4794 108.454 56.7123 107.01 56.7123 104.742C56.7123 101.443 54.452 99.5876 50.5479 99.5876H39.4521V120H39.2466ZM22.3973 111.753L26.5068 103.093L30.411 111.753H22.3973ZM15.6164 120H18.4931L21.1644 114.227H31.4384L33.9041 120H36.9863L27.9452 99.7938H25.0685L15.6164 120ZM2.87671 100H0V120.206H15.2055V117.526H2.87671V100Z" fill="white"/>
<path fill-rule="evenodd" clip-rule="evenodd" d="M20.1591 4.12378L28.5449 18.6936L37.0084 4.12378L42.3509 7.21656L33.9251 21.8557H50.7756V28.0413H33.9251L42.3509 42.6805L37.0084 45.7733L28.5449 31.2035L20.1591 45.7733L14.6111 42.6805L23.1149 28.0413H6.18652V21.8557H23.1149L14.6111 7.21656L20.1591 4.12378Z" fill="black"/>
<path fill-rule="evenodd" clip-rule="evenodd" d="M20.5698 0L22.2137 2.8866L23.8575 5.56701L22.2137 8.45361L20.5698 11.134H17.2822H14.2L12.5561 8.45361L10.9123 5.56701L12.5561 2.8866L14.2 0H17.2822H20.5698ZM9.47394 19.3814L11.1178 22.0619L12.7616 24.9485L11.1178 27.6289L9.47394 30.5155H6.18627H3.10408L1.46024 27.6289L-0.183594 24.9485L1.46024 22.0619L3.10408 19.3814H6.18627H9.47394ZM31.6657 19.3814L33.3096 22.0619L34.9534 24.9485L33.3096 27.6289L31.6657 30.5155H28.5835H25.2959L23.652 27.6289L22.0082 24.9485L23.652 22.0619L25.2959 19.3814H28.5835H31.6657ZM55.5014 22.0619L54.063 19.3814H50.7753H47.4877L46.0493 22.0619L44.4055 24.9485L46.0493 27.6289L47.4877 30.5155H50.7753H54.063L55.5014 27.6289L57.1452 24.9485L55.5014 22.0619ZM44.4055 2.8866L42.7616 0H39.6794H36.3918L34.7479 2.8866L33.3096 5.56701L34.7479 8.45361L36.3918 11.134H39.6794H42.7616L44.4055 8.45361L46.0493 5.56701L44.4055 2.8866ZM14.2 49.8969H17.2822H20.5698L22.2137 47.0103L23.8575 44.3299L22.2137 41.4433L20.5698 38.7629H17.2822H14.2L12.5561 41.4433L10.9123 44.3299L12.5561 47.0103L14.2 49.8969ZM39.6794 49.8969H36.3918L34.7479 47.0103L33.3096 44.3299L34.7479 41.4433L36.3918 38.7629H39.6794H42.7616L44.4055 41.4433L46.0493 44.3299L44.4055 47.0103L42.7616 49.8969H39.6794Z" fill="white"/>
</g>
<defs>
<clipPath id="clip0_115_676">
<rect width="120" height="120" fill="white"/>
</clipPath>
</defs>
</svg>
