<svg width="515" height="117" fill="none" xmlns="http://www.w3.org/2000/svg"><path d="M191.994 87.752c0 .821.015 1.408.044 1.76.029.352.132.719.308 1.1.176.381.455.63.836.748.381.117.909.176 1.584.176s1.511-.117 2.508-.352v2.684c-1.408.352-2.684.528-3.828.528-1.701 0-2.889-.484-3.564-1.452-.645-.997-.968-2.596-.968-4.796V73.1h-4.004v-2.552h4.004v-6.864h3.08v6.864h5.324V73.1h-5.324v14.652Zm8.79 6.248V62.056h2.948v12.848c2.288-3.227 5.559-4.84 9.812-4.84 3.11 0 5.383.719 6.82 2.156 1.467 1.408 2.2 3.608 2.2 6.6V94h-3.036V80.8c0-2.845-.469-4.884-1.408-6.116-.938-1.232-2.64-1.848-5.104-1.848-2.64 0-4.84.733-6.6 2.2-1.73 1.437-2.596 3.3-2.596 5.588V94h-3.036Zm50.848-7.48c-.616 2.552-1.966 4.576-4.048 6.072-2.054 1.496-4.562 2.244-7.524 2.244-3.784 0-6.82-1.144-9.108-3.432-2.259-2.317-3.388-5.353-3.388-9.108 0-3.755 1.144-6.776 3.432-9.064 2.317-2.317 5.338-3.476 9.064-3.476 3.754 0 6.761 1.144 9.02 3.432 2.288 2.259 3.432 5.28 3.432 9.064v.704h-21.648c.176 2.845 1.056 5.045 2.64 6.6 1.613 1.525 3.798 2.288 6.556 2.288 1.994 0 3.71-.455 5.148-1.364 1.437-.939 2.434-2.259 2.992-3.96h3.432Zm-20.68-6.116h18.084c-.176-2.347-1.086-4.224-2.728-5.632-1.643-1.408-3.726-2.112-6.248-2.112-2.582 0-4.694.704-6.336 2.112-1.643 1.408-2.567 3.285-2.772 5.632ZM271.9 94V62.056h3.08v12.452c2.317-3.08 5.412-4.62 9.284-4.62 3.696 0 6.688 1.13 8.976 3.388 2.288 2.259 3.432 5.221 3.432 8.888s-1.144 6.644-3.432 8.932c-2.288 2.259-5.28 3.388-8.976 3.388-3.96 0-7.055-1.555-9.284-4.664V94h-3.08Zm3.08-11.836c0 2.875.821 5.163 2.464 6.864 1.672 1.672 3.93 2.508 6.776 2.508 2.845 0 5.104-.85 6.776-2.552 1.672-1.701 2.508-3.975 2.508-6.82s-.851-5.119-2.552-6.82c-1.672-1.73-3.916-2.596-6.732-2.596-2.816 0-5.06.865-6.732 2.596-1.672 1.701-2.508 3.975-2.508 6.82Zm49.398 4.356c-.616 2.552-1.965 4.576-4.048 6.072-2.053 1.496-4.561 2.244-7.524 2.244-3.784 0-6.82-1.144-9.108-3.432-2.259-2.317-3.388-5.353-3.388-9.108 0-3.755 1.144-6.776 3.432-9.064 2.317-2.317 5.339-3.476 9.064-3.476 3.755 0 6.761 1.144 9.02 3.432 2.288 2.259 3.432 5.28 3.432 9.064v.704H303.61c.176 2.845 1.056 5.045 2.64 6.6 1.613 1.525 3.799 2.288 6.556 2.288 1.995 0 3.711-.455 5.148-1.364 1.437-.939 2.435-2.259 2.992-3.96h3.432Zm-20.68-6.116h18.084c-.176-2.347-1.085-4.224-2.728-5.632-1.643-1.408-3.725-2.112-6.248-2.112-2.581 0-4.693.704-6.336 2.112-1.643 1.408-2.567 3.285-2.772 5.632Zm24.571 6.204h3.08c.44 3.52 3.153 5.28 8.14 5.28 5.397 0 8.096-1.437 8.096-4.312 0-1.027-.352-1.804-1.056-2.332-.704-.557-1.819-.953-3.344-1.188l-6.776-1.012c-2.611-.381-4.517-1.056-5.72-2.024-1.203-.997-1.804-2.464-1.804-4.4 0-2.083.909-3.74 2.728-4.972 1.848-1.261 4.415-1.892 7.7-1.892s5.852.675 7.7 2.024c1.848 1.35 2.801 3.197 2.86 5.544h-3.08c-.44-3.168-3.08-4.752-7.92-4.752-2.171 0-3.857.352-5.06 1.056-1.173.675-1.76 1.613-1.76 2.816 0 1.115.411 1.921 1.232 2.42.851.499 2.244.895 4.18 1.188l5.984.924c2.552.381 4.4 1.056 5.544 2.024 1.173.968 1.76 2.39 1.76 4.268 0 2.464-.983 4.341-2.948 5.632-1.936 1.29-4.811 1.936-8.624 1.936-3.344 0-5.955-.719-7.832-2.156-1.877-1.437-2.904-3.461-3.08-6.072Zm31.475 1.144c0 .821.015 1.408.044 1.76.029.352.132.719.308 1.1.176.381.455.63.836.748.381.117.909.176 1.584.176s1.511-.117 2.508-.352v2.684c-1.408.352-2.684.528-3.828.528-1.701 0-2.889-.484-3.564-1.452-.645-.997-.968-2.596-.968-4.796V73.1h-4.004v-2.552h4.004v-6.864h3.08v6.864h5.324V73.1h-5.324v14.652Z" fill="#fff"/><path d="M169.001 82.707a1 1 0 0 0 0-1.414l-6.364-6.364a1 1 0 1 0-1.414 1.414L166.88 82l-5.657 5.657a1 1 0 1 0 1.414 1.414l6.364-6.364ZM106 83h62.294v-2H106v2Z" fill="#F66"/><path d="m187 109 5.353 3.5a9.783 9.783 0 0 0 10.706 0 9.783 9.783 0 0 1 10.706 0 9.783 9.783 0 0 0 10.706 0 9.781 9.781 0 0 1 10.705 0 9.783 9.783 0 0 0 10.706 0 9.783 9.783 0 0 1 10.706 0 9.783 9.783 0 0 0 10.706 0 9.783 9.783 0 0 1 10.706 0 9.783 9.783 0 0 0 10.706 0 9.783 9.783 0 0 1 10.706 0 9.783 9.783 0 0 0 10.706 0 9.783 9.783 0 0 1 10.706 0 9.781 9.781 0 0 0 10.705 0 9.783 9.783 0 0 1 10.706 0 9.783 9.783 0 0 0 10.706 0 9.783 9.783 0 0 1 10.706 0L369 116" stroke="#699CFC" stroke-width="2"/><path d="M264.7 32.752c0 .821.015 1.408.044 1.76.029.352.132.719.308 1.1.176.381.455.63.836.748.381.117.909.176 1.584.176s1.511-.117 2.508-.352v2.684c-1.408.352-2.684.528-3.828.528-1.701 0-2.889-.484-3.564-1.452-.645-.997-.968-2.596-.968-4.796V18.1h-4.004v-2.552h4.004V8.684h3.08v6.864h5.324V18.1H264.7v14.652Zm10.814 3.652c-2.288-2.317-3.432-5.353-3.432-9.108 0-3.755 1.144-6.776 3.432-9.064 2.318-2.317 5.339-3.476 9.064-3.476 3.755 0 6.776 1.159 9.064 3.476 2.318 2.288 3.476 5.31 3.476 9.064 0 3.755-1.158 6.79-3.476 9.108-2.288 2.288-5.309 3.432-9.064 3.432-3.725 0-6.746-1.144-9.064-3.432Zm2.2-16.06c-1.672 1.701-2.508 4.019-2.508 6.952s.836 5.265 2.508 6.996c1.702 1.701 3.99 2.552 6.864 2.552 2.875 0 5.148-.865 6.82-2.596 1.702-1.73 2.552-4.048 2.552-6.952s-.85-5.221-2.552-6.952c-1.672-1.73-3.945-2.596-6.82-2.596-2.874 0-5.162.865-6.864 2.596Zm44.764 6.952c0-2.875-.836-5.163-2.508-6.864-1.672-1.701-3.931-2.552-6.776-2.552-2.816 0-5.075.865-6.776 2.596-1.672 1.701-2.508 3.975-2.508 6.82 0 2.816.836 5.09 2.508 6.82 1.701 1.701 3.96 2.552 6.776 2.552 2.845 0 5.104-.85 6.776-2.552 1.672-1.701 2.508-3.975 2.508-6.82Zm3.036 9.944c0 1.819-.176 3.285-.528 4.4-.352 1.144-1.086 2.17-2.2 3.08-2.23 1.79-5.398 2.684-9.504 2.684-3.227 0-5.779-.616-7.656-1.848-1.848-1.232-2.875-2.933-3.08-5.104h3.168c.44 2.816 2.933 4.224 7.48 4.224 3.344 0 5.72-.557 7.128-1.672 1.437-1.115 2.156-2.933 2.156-5.456v-2.64c-2.406 3.11-5.515 4.664-9.328 4.664-3.696 0-6.688-1.13-8.976-3.388-2.259-2.259-3.388-5.221-3.388-8.888s1.129-6.63 3.388-8.888c2.288-2.288 5.28-3.432 8.976-3.432 3.842 0 6.952 1.555 9.328 4.664v-4.092h3.036V37.24Zm29.246-5.72c-.616 2.552-1.966 4.576-4.048 6.072-2.054 1.496-4.562 2.244-7.524 2.244-3.784 0-6.82-1.144-9.108-3.432-2.259-2.317-3.388-5.353-3.388-9.108 0-3.755 1.144-6.776 3.432-9.064 2.317-2.317 5.338-3.476 9.064-3.476 3.754 0 6.761 1.144 9.02 3.432 2.288 2.259 3.432 5.28 3.432 9.064v.704h-21.648c.176 2.845 1.056 5.045 2.64 6.6 1.613 1.525 3.798 2.288 6.556 2.288 1.994 0 3.71-.455 5.148-1.364 1.437-.939 2.434-2.259 2.992-3.96h3.432Zm-20.68-6.116h18.084c-.176-2.347-1.086-4.224-2.728-5.632-1.643-1.408-3.726-2.112-6.248-2.112-2.582 0-4.694.704-6.336 2.112-1.643 1.408-2.567 3.285-2.772 5.632Zm30.995 7.348c0 .821.015 1.408.044 1.76.029.352.132.719.308 1.1.176.381.455.63.836.748.381.117.909.176 1.584.176s1.511-.117 2.508-.352v2.684c-1.408.352-2.684.528-3.828.528-1.701 0-2.889-.484-3.564-1.452-.645-.997-.968-2.596-.968-4.796V18.1h-4.004v-2.552h4.004V8.684h3.08v6.864h5.324V18.1h-5.324v14.652Zm8.79 6.248V7.056h2.948v12.848c2.288-3.227 5.559-4.84 9.812-4.84 3.11 0 5.383.719 6.82 2.156 1.467 1.408 2.2 3.608 2.2 6.6V39h-3.036V25.8c0-2.845-.469-4.884-1.408-6.116-.938-1.232-2.64-1.848-5.104-1.848-2.64 0-4.84.733-6.6 2.2-1.73 1.437-2.596 3.3-2.596 5.588V39h-3.036Zm50.848-7.48c-.616 2.552-1.965 4.576-4.048 6.072-2.053 1.496-4.561 2.244-7.524 2.244-3.784 0-6.82-1.144-9.108-3.432-2.259-2.317-3.388-5.353-3.388-9.108 0-3.755 1.144-6.776 3.432-9.064 2.317-2.317 5.339-3.476 9.064-3.476 3.755 0 6.761 1.144 9.02 3.432 2.288 2.259 3.432 5.28 3.432 9.064v.704h-21.648c.176 2.845 1.056 5.045 2.64 6.6 1.613 1.525 3.799 2.288 6.556 2.288 1.995 0 3.711-.455 5.148-1.364 1.437-.939 2.435-2.259 2.992-3.96h3.432Zm-20.68-6.116h18.084c-.176-2.347-1.085-4.224-2.728-5.632-1.643-1.408-3.725-2.112-6.248-2.112-2.581 0-4.693.704-6.336 2.112-1.643 1.408-2.567 3.285-2.772 5.632ZM433.752 39h-3.124V15.592h3.124v3.872c.675-1.467 1.628-2.61 2.86-3.432a7.244 7.244 0 0 1 4.136-1.276c1.027 0 2.068.22 3.124.66v2.948c-.997-.293-1.921-.44-2.772-.44-3.608 0-6.057 1.98-7.348 5.94V39Z" fill="#fff"/><path d="m225.209 11 2.369 10.489 9.092-5.742-5.741 9.093 10.489 2.369-10.489 2.37 5.741 9.091-9.092-5.741-2.369 10.489-2.369-10.489-9.092 5.741 5.741-9.092L209 27.21l10.489-2.37-5.741-9.091 9.092 5.741L225.209 11Z" fill="#CB9CFD"/><path d="M6.996 35.788H18.92c2.845 0 4.928-.44 6.248-1.32 1.35-.91 2.024-2.39 2.024-4.444 0-2.259-.616-3.887-1.848-4.884-1.203-.997-3.11-1.496-5.72-1.496H6.996v12.144Zm0-15.004h11.308c2.699 0 4.664-.396 5.896-1.188 1.232-.821 1.848-2.23 1.848-4.224 0-1.936-.601-3.315-1.804-4.136-1.173-.821-3.05-1.232-5.632-1.232H6.996v10.78ZM3.74 39V7.056h15.532c3.315 0 5.808.69 7.48 2.068 1.701 1.35 2.552 3.344 2.552 5.984 0 3.373-1.657 5.72-4.972 7.04 1.995.41 3.52 1.261 4.576 2.552 1.085 1.29 1.628 2.963 1.628 5.016 0 3.168-.939 5.515-2.816 7.04C25.872 38.252 23.041 39 19.228 39H3.74Zm54.961-7.48c-.616 2.552-1.965 4.576-4.048 6.072-2.053 1.496-4.561 2.244-7.524 2.244-3.784 0-6.82-1.144-9.108-3.432-2.258-2.317-3.388-5.353-3.388-9.108 0-3.755 1.144-6.776 3.432-9.064 2.318-2.317 5.339-3.476 9.064-3.476 3.755 0 6.762 1.144 9.02 3.432 2.288 2.259 3.432 5.28 3.432 9.064v.704H37.933c.176 2.845 1.056 5.045 2.64 6.6 1.614 1.525 3.799 2.288 6.556 2.288 1.995 0 3.71-.455 5.148-1.364 1.438-.939 2.435-2.259 2.992-3.96h3.432Zm-20.68-6.116h18.084c-.176-2.347-1.085-4.224-2.728-5.632-1.643-1.408-3.725-2.112-6.248-2.112-2.581 0-4.693.704-6.336 2.112-1.642 1.408-2.566 3.285-2.772 5.632Zm46 5.06h3.123c-.322 2.757-1.554 5.016-3.696 6.776-2.14 1.73-4.737 2.596-7.788 2.596-3.725 0-6.746-1.144-9.064-3.432-2.288-2.317-3.432-5.353-3.432-9.108 0-3.755 1.144-6.776 3.432-9.064 2.318-2.317 5.34-3.476 9.064-3.476 2.963 0 5.471.792 7.524 2.376 2.083 1.584 3.33 3.652 3.74 6.204h-3.168c-1.173-3.784-3.9-5.676-8.184-5.676-2.757 0-5 .88-6.732 2.64-1.7 1.76-2.552 4.092-2.552 6.996 0 2.933.836 5.265 2.508 6.996 1.702 1.701 3.99 2.552 6.864 2.552 2.142 0 3.96-.572 5.456-1.716 1.526-1.173 2.494-2.728 2.904-4.664Zm9.603 5.94c-2.288-2.317-3.432-5.353-3.432-9.108 0-3.755 1.144-6.776 3.432-9.064 2.317-2.317 5.338-3.476 9.064-3.476 3.754 0 6.776 1.159 9.064 3.476 2.317 2.288 3.476 5.31 3.476 9.064 0 3.755-1.159 6.79-3.476 9.108-2.288 2.288-5.31 3.432-9.064 3.432-3.726 0-6.747-1.144-9.064-3.432Zm2.2-16.06c-1.672 1.701-2.508 4.019-2.508 6.952s.836 5.265 2.508 6.996c1.701 1.701 3.99 2.552 6.864 2.552 2.874 0 5.148-.865 6.82-2.596 1.701-1.73 2.552-4.048 2.552-6.952s-.851-5.221-2.552-6.952c-1.672-1.73-3.946-2.596-6.82-2.596-2.875 0-5.163.865-6.864 2.596ZM120.303 39V15.592h2.948v4.312c2.317-3.197 5.588-4.796 9.812-4.796 4.459 0 7.348 1.599 8.668 4.796 2.317-3.197 5.588-4.796 9.812-4.796 3.109 0 5.383.719 6.82 2.156 1.467 1.408 2.2 3.608 2.2 6.6V39h-3.08V25.844c0-2.875-.469-4.913-1.408-6.116-.909-1.232-2.596-1.848-5.06-1.848-2.669 0-4.869.733-6.6 2.2-1.731 1.437-2.596 3.3-2.596 5.588V39h-2.772V25.844c0-2.875-.469-4.913-1.408-6.116-.909-1.232-2.611-1.848-5.104-1.848-2.669 0-4.869.733-6.6 2.2-1.731 1.437-2.596 3.3-2.596 5.588V39h-3.036Zm69.281-7.48c-.616 2.552-1.965 4.576-4.048 6.072-2.053 1.496-4.561 2.244-7.524 2.244-3.784 0-6.82-1.144-9.108-3.432-2.259-2.317-3.388-5.353-3.388-9.108 0-3.755 1.144-6.776 3.432-9.064 2.317-2.317 5.339-3.476 9.064-3.476 3.755 0 6.761 1.144 9.02 3.432 2.288 2.259 3.432 5.28 3.432 9.064v.704h-21.648c.176 2.845 1.056 5.045 2.64 6.6 1.613 1.525 3.799 2.288 6.556 2.288 1.995 0 3.711-.455 5.148-1.364 1.437-.939 2.435-2.259 2.992-3.96h3.432Zm-20.68-6.116h18.084c-.176-2.347-1.085-4.224-2.728-5.632-1.643-1.408-3.725-2.112-6.248-2.112-2.581 0-4.693.704-6.336 2.112-1.643 1.408-2.567 3.285-2.772 5.632ZM8.712 94.006.484 70.598h3.344l6.864 20.548 6.292-20.548H20.9l6.644 20.548L34.1 70.598h3.256l-8.052 23.408h-3.608L18.964 73.15l-6.556 20.856H8.712Zm32.748 0V70.554h3.036v23.452H41.46Zm0-28.292v-3.652h3.036v3.652H41.46Zm14.193 22.044c0 .821.015 1.408.044 1.76.03.352.132.719.308 1.1.176.381.455.63.836.748.381.117.91.176 1.584.176.675 0 1.51-.118 2.508-.352v2.684c-1.408.352-2.684.528-3.828.528-1.701 0-2.89-.484-3.564-1.452-.645-.998-.968-2.596-.968-4.796V73.106H48.57v-2.552h4.004V63.69h3.08v6.864h5.324v2.552h-5.324v14.652Zm8.79 6.248V62.062h2.948V74.91c2.288-3.227 5.56-4.84 9.813-4.84 3.109 0 5.382.719 6.82 2.156 1.466 1.408 2.2 3.608 2.2 6.6v15.18h-3.037v-13.2c0-2.846-.469-4.884-1.407-6.116-.94-1.232-2.64-1.848-5.105-1.848-2.64 0-4.84.733-6.6 2.2-1.73 1.437-2.596 3.3-2.596 5.588v13.376h-3.035Z" fill="#fff"/></svg>