<svg width="211" height="10" viewBox="0 0 211 10" fill="none" xmlns="http://www.w3.org/2000/svg">
<path d="M1 1.34424L8.14679 5.60926C11.3035 7.4931 15.2393 7.4931 18.3959 5.60926L20.4182 4.40246C23.5749 2.51862 27.5106 2.51862 30.6673 4.40246L32.6895 5.60926C35.8462 7.4931 39.782 7.4931 42.9387 5.60926L44.9609 4.40246C48.1176 2.51862 52.0534 2.51862 55.2101 4.40246L57.2323 5.60926C60.389 7.4931 64.3247 7.4931 67.4814 5.60926L69.5036 4.40246C72.6603 2.51862 76.5961 2.51862 79.7528 4.40246L81.775 5.60926C84.9317 7.4931 88.8675 7.4931 92.0242 5.60926L94.0464 4.40246C97.2031 2.51862 101.139 2.51862 104.296 4.40246L106.318 5.60926C109.474 7.4931 113.41 7.4931 116.567 5.60926L118.589 4.40246C121.746 2.51862 125.682 2.51862 128.838 4.40246L130.86 5.60926C134.017 7.4931 137.953 7.4931 141.11 5.60926L143.132 4.40246C146.289 2.51862 150.224 2.51862 153.381 4.40246L155.403 5.60926C158.56 7.4931 162.496 7.4931 165.652 5.60926L167.675 4.40246C170.831 2.51862 174.767 2.51862 177.924 4.40246L179.946 5.60926C183.103 7.4931 187.038 7.4931 190.195 5.60926L192.217 4.40246C195.374 2.51862 199.31 2.51862 202.466 4.40246L209.613 8.66748" stroke="#699CFC" stroke-width="2"/>
</svg>
